# MagicaVoxel @ ephtracy

# material
mtllib GPP.mtl
usemtl palette

# normals
vn -1 0 0
vn 1 0 0
vn 0 0 1
vn 0 0 -1
vn 0 -1 0
vn 0 1 0

# texcoords
vt 0.0683594 0.5
vt 0.849609 0.5
vt 0.939453 0.5
vt 0.958984 0.5
vt 0.994141 0.5

# verts
v -3.5 0 2.5
v -3.5 0 1.5
v -3.5 0 0.5
v -3.5 0 -0.5
v -3.5 0 -1.5
v -3.5 0 -2.5
v -3.5 1 1.5
v -3.5 1 0.5
v -3.5 1 -0.5
v -3.5 1 -1.5
v -3.5 3 2.5
v -3.5 3 -2.5
v -2.5 3 2.5
v -2.5 3 -2.5
v -2.5 6 2.5
v -2.5 6 -2.5
v -1.5 0 2.5
v -1.5 0 1.5
v -1.5 0 -1.5
v -1.5 0 -2.5
v -1.5 1 2.5
v -1.5 1 1.5
v -1.5 1 -1.5
v -1.5 1 -2.5
v -0.5 3 1.5
v -0.5 3 0.5
v -0.5 5 1.5
v -0.5 5 0.5
v -0.5 6 1.5
v -0.5 6 -1.5
v -0.5 9 1.5
v -0.5 9 -1.5
v 0.5 3 3.5
v 0.5 3 2.5
v 0.5 3 -2.5
v 0.5 3 -3.5
v 0.5 4 3.5
v 0.5 4 2.5
v 0.5 4 -2.5
v 0.5 4 -3.5
v 0.5 9 0.5
v 0.5 9 -0.5
v 0.5 11 0.5
v 0.5 11 -0.5
v 1.5 0 2.5
v 1.5 0 1.5
v 1.5 0 0.5
v 1.5 0 -0.5
v 1.5 0 -1.5
v 1.5 0 -2.5
v 1.5 1 2.5
v 1.5 1 1.5
v 1.5 1 0.5
v 1.5 1 -0.5
v 1.5 1 -1.5
v 1.5 1 -2.5
v -2.5 0 2.5
v -2.5 0 1.5
v -2.5 0 0.5
v -2.5 0 -0.5
v -2.5 0 -1.5
v -2.5 0 -2.5
v -2.5 1 2.5
v -2.5 1 1.5
v -2.5 1 0.5
v -2.5 1 -0.5
v -2.5 1 -1.5
v -2.5 1 -2.5
v -1.5 3 1.5
v -1.5 3 0.5
v -1.5 5 1.5
v -1.5 5 0.5
v 0.5 0 2.5
v 0.5 0 1.5
v 0.5 0 -1.5
v 0.5 0 -2.5
v 0.5 1 2.5
v 0.5 1 1.5
v 0.5 1 -1.5
v 0.5 1 -2.5
v 1.5 3 3.5
v 1.5 3 2.5
v 1.5 3 1.5
v 1.5 3 0.5
v 1.5 3 -0.5
v 1.5 3 -1.5
v 1.5 3 -2.5
v 1.5 3 -3.5
v 1.5 4 3.5
v 1.5 4 2.5
v 1.5 4 1.5
v 1.5 4 0.5
v 1.5 4 -0.5
v 1.5 4 -1.5
v 1.5 4 -2.5
v 1.5 4 -3.5
v 1.5 10 0.5
v 1.5 10 -0.5
v 1.5 11 0.5
v 1.5 11 -0.5
v 2.5 0 2.5
v 2.5 0 1.5
v 2.5 0 0.5
v 2.5 0 -0.5
v 2.5 0 -1.5
v 2.5 0 -2.5
v 2.5 1 1.5
v 2.5 1 0.5
v 2.5 1 -0.5
v 2.5 1 -1.5
v 2.5 3 2.5
v 2.5 3 1.5
v 2.5 3 0.5
v 2.5 3 -0.5
v 2.5 3 -1.5
v 2.5 3 -2.5
v 2.5 4 2.5
v 2.5 4 1.5
v 2.5 4 0.5
v 2.5 4 -0.5
v 2.5 4 -1.5
v 2.5 4 -2.5
v 2.5 6 2.5
v 2.5 6 1.5
v 2.5 6 0.5
v 2.5 6 -0.5
v 2.5 6 -1.5
v 2.5 6 -2.5
v 2.5 7 0.5
v 2.5 7 -0.5
v 2.5 9 1.5
v 2.5 9 0.5
v 2.5 9 -0.5
v 2.5 9 -1.5
v 2.5 10 0.5
v 2.5 10 -0.5
v 3.5 6 0.5
v 3.5 6 -0.5
v 3.5 7 0.5
v 3.5 7 -0.5
v 0.5 3 3.5
v 0.5 4 3.5
v 1.5 3 3.5
v 1.5 4 3.5
v -3.5 0 2.5
v -3.5 3 2.5
v -2.5 0 2.5
v -2.5 1 2.5
v -2.5 3 2.5
v -2.5 6 2.5
v -1.5 0 2.5
v -1.5 1 2.5
v 0.5 0 2.5
v 0.5 1 2.5
v 0.5 3 2.5
v 0.5 4 2.5
v 1.5 0 2.5
v 1.5 1 2.5
v 1.5 3 2.5
v 1.5 4 2.5
v 2.5 0 2.5
v 2.5 3 2.5
v 2.5 4 2.5
v 2.5 6 2.5
v -0.5 6 1.5
v -0.5 9 1.5
v 2.5 6 1.5
v 2.5 9 1.5
v -3.5 0 0.5
v -3.5 1 0.5
v -2.5 0 0.5
v -2.5 1 0.5
v -1.5 3 0.5
v -1.5 5 0.5
v -0.5 3 0.5
v -0.5 5 0.5
v 0.5 9 0.5
v 0.5 11 0.5
v 1.5 0 0.5
v 1.5 1 0.5
v 1.5 3 0.5
v 1.5 4 0.5
v 1.5 10 0.5
v 1.5 11 0.5
v 2.5 0 0.5
v 2.5 1 0.5
v 2.5 3 0.5
v 2.5 4 0.5
v 2.5 6 0.5
v 2.5 7 0.5
v 2.5 9 0.5
v 2.5 10 0.5
v 3.5 6 0.5
v 3.5 7 0.5
v -3.5 0 -1.5
v -3.5 1 -1.5
v -2.5 0 -1.5
v -2.5 1 -1.5
v -1.5 0 -1.5
v -1.5 1 -1.5
v 0.5 0 -1.5
v 0.5 1 -1.5
v 1.5 0 -1.5
v 1.5 1 -1.5
v 1.5 3 -1.5
v 1.5 4 -1.5
v 2.5 0 -1.5
v 2.5 1 -1.5
v 2.5 3 -1.5
v 2.5 4 -1.5
v -3.5 0 1.5
v -3.5 1 1.5
v -2.5 0 1.5
v -2.5 1 1.5
v -1.5 0 1.5
v -1.5 1 1.5
v -1.5 3 1.5
v -1.5 5 1.5
v -0.5 3 1.5
v -0.5 5 1.5
v 0.5 0 1.5
v 0.5 1 1.5
v 1.5 0 1.5
v 1.5 1 1.5
v 1.5 3 1.5
v 1.5 4 1.5
v 2.5 0 1.5
v 2.5 1 1.5
v 2.5 3 1.5
v 2.5 4 1.5
v -3.5 0 -0.5
v -3.5 1 -0.5
v -2.5 0 -0.5
v -2.5 1 -0.5
v 0.5 9 -0.5
v 0.5 11 -0.5
v 1.5 0 -0.5
v 1.5 1 -0.5
v 1.5 3 -0.5
v 1.5 4 -0.5
v 1.5 10 -0.5
v 1.5 11 -0.5
v 2.5 0 -0.5
v 2.5 1 -0.5
v 2.5 3 -0.5
v 2.5 4 -0.5
v 2.5 6 -0.5
v 2.5 7 -0.5
v 2.5 9 -0.5
v 2.5 10 -0.5
v 3.5 6 -0.5
v 3.5 7 -0.5
v -0.5 6 -1.5
v -0.5 9 -1.5
v 2.5 6 -1.5
v 2.5 9 -1.5
v -3.5 0 -2.5
v -3.5 3 -2.5
v -2.5 0 -2.5
v -2.5 1 -2.5
v -2.5 3 -2.5
v -2.5 6 -2.5
v -1.5 0 -2.5
v -1.5 1 -2.5
v 0.5 0 -2.5
v 0.5 1 -2.5
v 0.5 3 -2.5
v 0.5 4 -2.5
v 1.5 0 -2.5
v 1.5 1 -2.5
v 1.5 3 -2.5
v 1.5 4 -2.5
v 2.5 0 -2.5
v 2.5 3 -2.5
v 2.5 4 -2.5
v 2.5 6 -2.5
v 0.5 3 -3.5
v 0.5 4 -3.5
v 1.5 3 -3.5
v 1.5 4 -3.5
v -3.5 0 2.5
v -2.5 0 2.5
v -1.5 0 2.5
v 0.5 0 2.5
v 1.5 0 2.5
v 2.5 0 2.5
v -3.5 0 1.5
v -2.5 0 1.5
v -1.5 0 1.5
v 0.5 0 1.5
v 1.5 0 1.5
v 2.5 0 1.5
v -3.5 0 0.5
v -2.5 0 0.5
v 1.5 0 0.5
v 2.5 0 0.5
v -3.5 0 -0.5
v -2.5 0 -0.5
v 1.5 0 -0.5
v 2.5 0 -0.5
v -3.5 0 -1.5
v -2.5 0 -1.5
v -1.5 0 -1.5
v 0.5 0 -1.5
v 1.5 0 -1.5
v 2.5 0 -1.5
v -3.5 0 -2.5
v -2.5 0 -2.5
v -1.5 0 -2.5
v 0.5 0 -2.5
v 1.5 0 -2.5
v 2.5 0 -2.5
v -2.5 1 2.5
v -1.5 1 2.5
v 0.5 1 2.5
v 1.5 1 2.5
v -3.5 1 1.5
v -2.5 1 1.5
v -1.5 1 1.5
v 0.5 1 1.5
v 1.5 1 1.5
v 2.5 1 1.5
v -3.5 1 0.5
v -2.5 1 0.5
v 1.5 1 0.5
v 2.5 1 0.5
v -3.5 1 -0.5
v -2.5 1 -0.5
v 1.5 1 -0.5
v 2.5 1 -0.5
v -3.5 1 -1.5
v -2.5 1 -1.5
v -1.5 1 -1.5
v 0.5 1 -1.5
v 1.5 1 -1.5
v 2.5 1 -1.5
v -2.5 1 -2.5
v -1.5 1 -2.5
v 0.5 1 -2.5
v 1.5 1 -2.5
v 0.5 3 3.5
v 1.5 3 3.5
v 0.5 3 2.5
v 1.5 3 2.5
v 0.5 3 -2.5
v 1.5 3 -2.5
v 0.5 3 -3.5
v 1.5 3 -3.5
v 1.5 4 1.5
v 2.5 4 1.5
v 1.5 4 0.5
v 2.5 4 0.5
v 1.5 4 -0.5
v 2.5 4 -0.5
v 1.5 4 -1.5
v 2.5 4 -1.5
v -1.5 5 1.5
v -0.5 5 1.5
v -1.5 5 0.5
v -0.5 5 0.5
v 2.5 6 0.5
v 3.5 6 0.5
v 2.5 6 -0.5
v 3.5 6 -0.5
v -3.5 3 2.5
v -2.5 3 2.5
v -1.5 3 1.5
v -0.5 3 1.5
v 1.5 3 1.5
v 2.5 3 1.5
v -1.5 3 0.5
v -0.5 3 0.5
v 1.5 3 0.5
v 2.5 3 0.5
v 1.5 3 -0.5
v 2.5 3 -0.5
v 1.5 3 -1.5
v 2.5 3 -1.5
v -3.5 3 -2.5
v -2.5 3 -2.5
v 0.5 4 3.5
v 1.5 4 3.5
v 0.5 4 2.5
v 1.5 4 2.5
v 0.5 4 -2.5
v 1.5 4 -2.5
v 0.5 4 -3.5
v 1.5 4 -3.5
v -2.5 6 2.5
v 2.5 6 2.5
v -0.5 6 1.5
v 2.5 6 1.5
v -0.5 6 -1.5
v 2.5 6 -1.5
v -2.5 6 -2.5
v 2.5 6 -2.5
v 2.5 7 0.5
v 3.5 7 0.5
v 2.5 7 -0.5
v 3.5 7 -0.5
v -0.5 9 1.5
v 2.5 9 1.5
v 0.5 9 0.5
v 2.5 9 0.5
v 0.5 9 -0.5
v 2.5 9 -0.5
v -0.5 9 -1.5
v 2.5 9 -1.5
v 1.5 10 0.5
v 2.5 10 0.5
v 1.5 10 -0.5
v 2.5 10 -0.5
v 0.5 11 0.5
v 1.5 11 0.5
v 0.5 11 -0.5
v 1.5 11 -0.5

# faces
f 7/3/1 2/3/1 1/3/1
f 8/3/1 4/3/1 3/3/1
f 9/3/1 4/3/1 8/3/1
f 10/3/1 6/3/1 5/3/1
f 11/3/1 9/3/1 8/3/1
f 11/3/1 10/3/1 9/3/1
f 11/3/1 7/3/1 1/3/1
f 11/3/1 8/3/1 7/3/1
f 12/3/1 6/3/1 10/3/1
f 12/3/1 10/3/1 11/3/1
f 15/5/1 14/5/1 13/5/1
f 16/5/1 14/5/1 15/5/1
f 21/3/1 18/3/1 17/3/1
f 22/3/1 18/3/1 21/3/1
f 23/3/1 20/3/1 19/3/1
f 24/3/1 20/3/1 23/3/1
f 27/5/1 26/5/1 25/5/1
f 28/5/1 26/5/1 27/5/1
f 31/5/1 30/5/1 29/5/1
f 32/5/1 30/5/1 31/5/1
f 37/4/1 34/4/1 33/4/1
f 38/4/1 34/4/1 37/4/1
f 39/4/1 36/4/1 35/4/1
f 40/4/1 36/4/1 39/4/1
f 43/2/1 42/2/1 41/2/1
f 44/2/1 42/2/1 43/2/1
f 51/3/1 46/3/1 45/3/1
f 52/3/1 46/3/1 51/3/1
f 53/3/1 48/3/1 47/3/1
f 54/3/1 48/3/1 53/3/1
f 55/3/1 50/3/1 49/3/1
f 56/3/1 50/3/1 55/3/1
f 57/3/2 58/3/2 63/3/2
f 63/3/2 58/3/2 64/3/2
f 59/3/2 60/3/2 65/3/2
f 65/3/2 60/3/2 66/3/2
f 61/3/2 62/3/2 67/3/2
f 67/3/2 62/3/2 68/3/2
f 69/5/2 70/5/2 71/5/2
f 71/5/2 70/5/2 72/5/2
f 73/3/2 74/3/2 77/3/2
f 77/3/2 74/3/2 78/3/2
f 75/3/2 76/3/2 79/3/2
f 79/3/2 76/3/2 80/3/2
f 81/4/2 82/4/2 89/4/2
f 89/4/2 82/4/2 90/4/2
f 83/3/2 84/3/2 91/3/2
f 91/3/2 84/3/2 92/3/2
f 85/3/2 86/3/2 93/3/2
f 93/3/2 86/3/2 94/3/2
f 87/4/2 88/4/2 95/4/2
f 95/4/2 88/4/2 96/4/2
f 97/2/2 98/2/2 99/2/2
f 99/2/2 98/2/2 100/2/2
f 101/3/2 102/3/2 107/3/2
f 103/3/2 104/3/2 108/3/2
f 108/3/2 104/3/2 109/3/2
f 105/3/2 106/3/2 110/3/2
f 108/3/2 109/3/2 111/3/2
f 109/3/2 110/3/2 111/3/2
f 101/3/2 107/3/2 111/3/2
f 107/3/2 108/3/2 111/3/2
f 111/3/2 110/3/2 112/3/2
f 112/3/2 110/3/2 113/3/2
f 113/3/2 110/3/2 114/3/2
f 110/3/2 106/3/2 115/3/2
f 114/3/2 110/3/2 115/3/2
f 115/3/2 106/3/2 116/3/2
f 111/4/2 112/4/2 117/4/2
f 117/4/2 112/4/2 118/4/2
f 113/4/2 114/4/2 119/4/2
f 119/4/2 114/4/2 120/4/2
f 115/4/2 116/4/2 121/4/2
f 121/4/2 116/4/2 122/4/2
f 117/5/2 118/5/2 123/5/2
f 119/5/2 120/5/2 123/5/2
f 121/5/2 122/5/2 123/5/2
f 120/5/2 121/5/2 123/5/2
f 118/5/2 119/5/2 123/5/2
f 123/5/2 122/5/2 124/5/2
f 124/5/2 122/5/2 125/5/2
f 125/5/2 122/5/2 126/5/2
f 126/5/2 122/5/2 127/5/2
f 127/5/2 122/5/2 128/5/2
f 124/5/2 125/5/2 129/5/2
f 126/5/2 127/5/2 130/5/2
f 124/5/2 129/5/2 131/5/2
f 129/5/2 130/5/2 131/5/2
f 131/5/2 130/5/2 132/5/2
f 130/5/2 127/5/2 133/5/2
f 132/5/2 130/5/2 133/5/2
f 133/5/2 127/5/2 134/5/2
f 132/2/2 133/2/2 135/2/2
f 135/2/2 133/2/2 136/2/2
f 137/1/2 138/1/2 139/1/2
f 139/1/2 138/1/2 140/1/2
f 143/4/3 142/4/3 141/4/3
f 144/4/3 142/4/3 143/4/3
f 147/3/3 146/3/3 145/3/3
f 148/3/3 146/3/3 147/3/3
f 149/3/3 146/3/3 148/3/3
f 152/3/3 149/3/3 148/3/3
f 153/3/3 152/3/3 151/3/3
f 154/3/3 149/3/3 152/3/3
f 154/3/3 152/3/3 153/3/3
f 155/5/3 150/5/3 149/5/3
f 155/3/3 149/3/3 154/3/3
f 156/5/3 150/5/3 155/5/3
f 158/3/3 155/3/3 154/3/3
f 159/3/3 155/3/3 158/3/3
f 160/5/3 150/5/3 156/5/3
f 161/3/3 159/3/3 158/3/3
f 161/3/3 158/3/3 157/3/3
f 162/4/3 160/4/3 159/4/3
f 162/3/3 159/3/3 161/3/3
f 163/5/3 150/5/3 160/5/3
f 163/4/3 160/4/3 162/4/3
f 164/5/3 150/5/3 163/5/3
f 167/5/3 166/5/3 165/5/3
f 168/5/3 166/5/3 167/5/3
f 171/3/3 170/3/3 169/3/3
f 172/3/3 170/3/3 171/3/3
f 175/5/3 174/5/3 173/5/3
f 176/5/3 174/5/3 175/5/3
f 183/2/3 178/2/3 177/2/3
f 184/2/3 178/2/3 183/2/3
f 185/3/3 180/3/3 179/3/3
f 186/3/3 180/3/3 185/3/3
f 187/4/3 182/4/3 181/4/3
f 188/4/3 182/4/3 187/4/3
f 191/2/3 183/2/3 177/2/3
f 192/2/3 183/2/3 191/2/3
f 193/1/3 190/1/3 189/1/3
f 194/1/3 190/1/3 193/1/3
f 197/3/3 196/3/3 195/3/3
f 198/3/3 196/3/3 197/3/3
f 201/3/3 200/3/3 199/3/3
f 202/3/3 200/3/3 201/3/3
f 207/3/3 204/3/3 203/3/3
f 208/3/3 204/3/3 207/3/3
f 209/4/3 206/4/3 205/4/3
f 210/4/3 206/4/3 209/4/3
f 211/3/4 212/3/4 213/3/4
f 213/3/4 212/3/4 214/3/4
f 217/5/4 218/5/4 219/5/4
f 219/5/4 218/5/4 220/5/4
f 215/3/4 216/3/4 221/3/4
f 221/3/4 216/3/4 222/3/4
f 223/3/4 224/3/4 227/3/4
f 227/3/4 224/3/4 228/3/4
f 225/4/4 226/4/4 229/4/4
f 229/4/4 226/4/4 230/4/4
f 231/3/4 232/3/4 233/3/4
f 233/3/4 232/3/4 234/3/4
f 235/2/4 236/2/4 241/2/4
f 241/2/4 236/2/4 242/2/4
f 237/3/4 238/3/4 243/3/4
f 243/3/4 238/3/4 244/3/4
f 239/4/4 240/4/4 245/4/4
f 245/4/4 240/4/4 246/4/4
f 235/2/4 241/2/4 249/2/4
f 249/2/4 241/2/4 250/2/4
f 247/1/4 248/1/4 251/1/4
f 251/1/4 248/1/4 252/1/4
f 253/5/4 254/5/4 255/5/4
f 255/5/4 254/5/4 256/5/4
f 257/3/4 258/3/4 259/3/4
f 259/3/4 258/3/4 260/3/4
f 260/3/4 258/3/4 261/3/4
f 260/3/4 261/3/4 264/3/4
f 263/3/4 264/3/4 265/3/4
f 264/3/4 261/3/4 266/3/4
f 265/3/4 264/3/4 266/3/4
f 261/5/4 262/5/4 267/5/4
f 266/3/4 261/3/4 267/3/4
f 267/5/4 262/5/4 268/5/4
f 266/3/4 267/3/4 270/3/4
f 270/3/4 267/3/4 271/3/4
f 268/5/4 262/5/4 272/5/4
f 270/3/4 271/3/4 273/3/4
f 269/3/4 270/3/4 273/3/4
f 271/4/4 272/4/4 274/4/4
f 273/3/4 271/3/4 274/3/4
f 272/5/4 262/5/4 275/5/4
f 274/4/4 272/4/4 275/4/4
f 275/5/4 262/5/4 276/5/4
f 277/4/4 278/4/4 279/4/4
f 279/4/4 278/4/4 280/4/4
f 287/3/5 282/3/5 281/3/5
f 288/3/5 282/3/5 287/3/5
f 289/3/5 284/3/5 283/3/5
f 290/3/5 284/3/5 289/3/5
f 291/3/5 286/3/5 285/3/5
f 292/3/5 286/3/5 291/3/5
f 297/3/5 294/3/5 293/3/5
f 298/3/5 294/3/5 297/3/5
f 299/3/5 296/3/5 295/3/5
f 300/3/5 296/3/5 299/3/5
f 307/3/5 302/3/5 301/3/5
f 308/3/5 302/3/5 307/3/5
f 309/3/5 304/3/5 303/3/5
f 310/3/5 304/3/5 309/3/5
f 311/3/5 306/3/5 305/3/5
f 312/3/5 306/3/5 311/3/5
f 318/3/5 314/3/5 313/3/5
f 319/3/5 314/3/5 318/3/5
f 320/3/5 316/3/5 315/3/5
f 321/3/5 316/3/5 320/3/5
f 323/3/5 319/3/5 318/3/5
f 323/3/5 322/3/5 321/3/5
f 323/3/5 321/3/5 320/3/5
f 323/3/5 320/3/5 319/3/5
f 323/3/5 318/3/5 317/3/5
f 324/3/5 322/3/5 323/3/5
f 325/3/5 322/3/5 324/3/5
f 326/3/5 322/3/5 325/3/5
f 328/3/5 325/3/5 324/3/5
f 329/3/5 325/3/5 328/3/5
f 331/3/5 328/3/5 327/3/5
f 331/3/5 330/3/5 329/3/5
f 331/3/5 329/3/5 328/3/5
f 332/3/5 330/3/5 331/3/5
f 333/3/5 330/3/5 332/3/5
f 334/3/5 330/3/5 333/3/5
f 335/3/5 330/3/5 334/3/5
f 336/3/5 330/3/5 335/3/5
f 337/3/5 333/3/5 332/3/5
f 338/3/5 333/3/5 337/3/5
f 339/3/5 335/3/5 334/3/5
f 340/3/5 335/3/5 339/3/5
f 343/4/5 342/4/5 341/4/5
f 344/4/5 342/4/5 343/4/5
f 347/4/5 346/4/5 345/4/5
f 348/4/5 346/4/5 347/4/5
f 351/5/5 350/5/5 349/5/5
f 352/5/5 350/5/5 351/5/5
f 355/5/5 354/5/5 353/5/5
f 356/5/5 354/5/5 355/5/5
f 359/5/5 358/5/5 357/5/5
f 360/5/5 358/5/5 359/5/5
f 363/1/5 362/1/5 361/1/5
f 364/1/5 362/1/5 363/1/5
f 367/3/6 368/3/6 371/3/6
f 371/3/6 368/3/6 372/3/6
f 369/3/6 370/3/6 373/3/6
f 373/3/6 370/3/6 374/3/6
f 375/3/6 376/3/6 377/3/6
f 377/3/6 376/3/6 378/3/6
f 365/3/6 366/3/6 379/3/6
f 379/3/6 366/3/6 380/3/6
f 381/4/6 382/4/6 383/4/6
f 383/4/6 382/4/6 384/4/6
f 385/4/6 386/4/6 387/4/6
f 387/4/6 386/4/6 388/4/6
f 389/5/6 390/5/6 391/5/6
f 391/5/6 390/5/6 392/5/6
f 389/5/6 391/5/6 393/5/6
f 389/5/6 393/5/6 395/5/6
f 393/5/6 394/5/6 395/5/6
f 395/5/6 394/5/6 396/5/6
f 397/1/6 398/1/6 399/1/6
f 399/1/6 398/1/6 400/1/6
f 401/5/6 402/5/6 403/5/6
f 403/5/6 402/5/6 404/5/6
f 401/5/6 403/5/6 405/5/6
f 401/5/6 405/5/6 407/5/6
f 405/5/6 406/5/6 407/5/6
f 407/5/6 406/5/6 408/5/6
f 409/2/6 410/2/6 411/2/6
f 411/2/6 410/2/6 412/2/6
f 413/2/6 414/2/6 415/2/6
f 415/2/6 414/2/6 416/2/6
