# MagicaVoxel @ ephtracy

# material
mtllib GPP.mtl
usemtl palette

# normals
vn -1 0 0
vn 1 0 0
vn 0 0 1
vn 0 0 -1
vn 0 -1 0
vn 0 1 0

# texcoords
vt 0.0410156 0.5
vt 0.0683594 0.5
vt 0.841797 0.5
vt 0.876953 0.5
vt 0.943359 0.5
vt 0.958984 0.5
vt 0.994141 0.5

# verts
v -3.5 4 3
v -3.5 4 -1
v -3.5 4 -2
v -3.5 5 3
v -3.5 5 2
v -3.5 5 -1
v -3.5 5 -2
v -3.5 6 2
v -3.5 6 1
v -3.5 7 1
v -3.5 7 -1
v -2.5 2 4
v -2.5 2 3
v -2.5 2 2
v -2.5 2 -0
v -2.5 2 -1
v -2.5 2 -2
v -2.5 3 3
v -2.5 3 2
v -2.5 3 -0
v -2.5 3 -1
v -2.5 4 3
v -2.5 4 -1
v -2.5 4 -2
v -2.5 4 -3
v -2.5 5 4
v -2.5 5 3
v -2.5 5 2
v -2.5 5 -1
v -2.5 5 -2
v -2.5 5 -3
v -2.5 6 2
v -2.5 6 1
v -2.5 7 3
v -2.5 7 1
v -2.5 7 -1
v -2.5 7 -3
v -1.5 0 2
v -1.5 0 1
v -1.5 2 2
v -1.5 2 1
v -1.5 7 -0
v -1.5 7 -3
v -1.5 10 -0
v -1.5 10 -3
v -0.5 2 4
v -0.5 2 3
v -0.5 2 -1
v -0.5 2 -2
v -0.5 3 4
v -0.5 3 3
v -0.5 3 -1
v -0.5 3 -2
v -0.5 4 -2
v -0.5 4 -3
v -0.5 5 -2
v -0.5 5 -3
v -0.5 7 -3
v -0.5 7 -4
v -0.5 8 -3
v -0.5 8 -4
v -0.5 10 -1
v -0.5 10 -3
v -0.5 11 -2
v -0.5 11 -3
v -0.5 12 -1
v -0.5 12 -2
v 0.5 0 2
v 0.5 0 1
v 0.5 3 2
v 0.5 3 1
v 1.5 2 4
v 1.5 2 3
v 1.5 2 1
v 1.5 2 -0
v 1.5 2 -1
v 1.5 2 -2
v 1.5 3 4
v 1.5 3 3
v 1.5 3 1
v 1.5 3 -0
v 1.5 3 -1
v 1.5 3 -2
v 1.5 4 -2
v 1.5 4 -3
v 1.5 5 -2
v 1.5 5 -3
v -1.5 2 4
v -1.5 2 3
v -1.5 2 1
v -1.5 2 -0
v -1.5 2 -1
v -1.5 2 -2
v -1.5 3 4
v -1.5 3 3
v -1.5 3 1
v -1.5 3 -0
v -1.5 3 -1
v -1.5 3 -2
v -1.5 4 -2
v -1.5 4 -3
v -1.5 5 -2
v -1.5 5 -3
v -0.5 0 2
v -0.5 0 1
v -0.5 3 2
v -0.5 3 1
v 0.5 2 4
v 0.5 2 3
v 0.5 2 -1
v 0.5 2 -2
v 0.5 3 4
v 0.5 3 3
v 0.5 3 -1
v 0.5 3 -2
v 0.5 4 -2
v 0.5 4 -3
v 0.5 5 -2
v 0.5 5 -3
v 0.5 7 -3
v 0.5 7 -4
v 0.5 8 -3
v 0.5 8 -4
v 0.5 10 -1
v 0.5 10 -3
v 0.5 11 -2
v 0.5 11 -3
v 0.5 12 -1
v 0.5 12 -2
v 1.5 0 2
v 1.5 0 1
v 1.5 2 2
v 1.5 2 1
v 1.5 7 -0
v 1.5 7 -3
v 1.5 10 -0
v 1.5 10 -3
v 2.5 2 4
v 2.5 2 3
v 2.5 2 2
v 2.5 2 -0
v 2.5 2 -1
v 2.5 2 -2
v 2.5 3 3
v 2.5 3 2
v 2.5 3 -0
v 2.5 3 -1
v 2.5 4 3
v 2.5 4 -1
v 2.5 4 -2
v 2.5 4 -3
v 2.5 5 4
v 2.5 5 3
v 2.5 5 2
v 2.5 5 -1
v 2.5 5 -2
v 2.5 5 -3
v 2.5 6 2
v 2.5 6 1
v 2.5 7 3
v 2.5 7 1
v 2.5 7 -1
v 2.5 7 -3
v 3.5 4 3
v 3.5 4 -1
v 3.5 4 -2
v 3.5 5 3
v 3.5 5 2
v 3.5 5 -1
v 3.5 5 -2
v 3.5 6 2
v 3.5 6 1
v 3.5 7 1
v 3.5 7 -1
v -2.5 2 4
v -2.5 5 4
v -1.5 2 4
v -1.5 3 4
v -0.5 2 4
v -0.5 3 4
v 0.5 2 4
v 0.5 3 4
v 1.5 2 4
v 1.5 3 4
v 2.5 2 4
v 2.5 5 4
v -3.5 4 3
v -3.5 5 3
v -2.5 4 3
v -2.5 5 3
v -2.5 7 3
v 2.5 4 3
v 2.5 5 3
v 2.5 7 3
v 3.5 4 3
v 3.5 5 3
v -3.5 5 2
v -3.5 6 2
v -2.5 2 2
v -2.5 3 2
v -2.5 5 2
v -2.5 6 2
v -1.5 0 2
v -1.5 2 2
v -1.5 3 2
v -0.5 0 2
v -0.5 3 2
v 0.5 0 2
v 0.5 3 2
v 1.5 0 2
v 1.5 2 2
v 1.5 3 2
v 2.5 2 2
v 2.5 3 2
v 2.5 5 2
v 2.5 6 2
v 3.5 5 2
v 3.5 6 2
v -3.5 6 1
v -3.5 7 1
v -2.5 6 1
v -2.5 7 1
v 2.5 6 1
v 2.5 7 1
v 3.5 6 1
v 3.5 7 1
v -1.5 7 -0
v -1.5 10 -0
v 1.5 7 -0
v 1.5 10 -0
v -2.5 2 -1
v -2.5 3 -1
v -1.5 2 -1
v -1.5 3 -1
v -0.5 2 -1
v -0.5 3 -1
v -0.5 10 -1
v -0.5 12 -1
v 0.5 2 -1
v 0.5 3 -1
v 0.5 10 -1
v 0.5 12 -1
v 1.5 2 -1
v 1.5 3 -1
v 2.5 2 -1
v 2.5 3 -1
v -2.5 2 3
v -2.5 3 3
v -1.5 2 3
v -1.5 3 3
v -0.5 2 3
v -0.5 3 3
v 0.5 2 3
v 0.5 3 3
v 1.5 2 3
v 1.5 3 3
v 2.5 2 3
v 2.5 3 3
v -1.5 0 1
v -1.5 2 1
v -1.5 3 1
v -0.5 0 1
v -0.5 3 1
v 0.5 0 1
v 0.5 3 1
v 1.5 0 1
v 1.5 2 1
v 1.5 3 1
v -2.5 2 -0
v -2.5 3 -0
v -1.5 2 -0
v -1.5 3 -0
v 1.5 2 -0
v 1.5 3 -0
v 2.5 2 -0
v 2.5 3 -0
v -3.5 5 -1
v -3.5 7 -1
v -2.5 5 -1
v -2.5 7 -1
v 2.5 5 -1
v 2.5 7 -1
v 3.5 5 -1
v 3.5 7 -1
v -3.5 4 -2
v -3.5 5 -2
v -2.5 2 -2
v -2.5 4 -2
v -2.5 5 -2
v -1.5 2 -2
v -1.5 3 -2
v -1.5 4 -2
v -1.5 5 -2
v -0.5 2 -2
v -0.5 3 -2
v -0.5 4 -2
v -0.5 5 -2
v -0.5 11 -2
v -0.5 12 -2
v 0.5 2 -2
v 0.5 3 -2
v 0.5 4 -2
v 0.5 5 -2
v 0.5 11 -2
v 0.5 12 -2
v 1.5 2 -2
v 1.5 3 -2
v 1.5 4 -2
v 1.5 5 -2
v 2.5 2 -2
v 2.5 4 -2
v 2.5 5 -2
v 3.5 4 -2
v 3.5 5 -2
v -2.5 4 -3
v -2.5 5 -3
v -2.5 7 -3
v -1.5 4 -3
v -1.5 5 -3
v -1.5 7 -3
v -1.5 10 -3
v -0.5 4 -3
v -0.5 5 -3
v -0.5 7 -3
v -0.5 8 -3
v -0.5 10 -3
v -0.5 11 -3
v 0.5 4 -3
v 0.5 5 -3
v 0.5 7 -3
v 0.5 8 -3
v 0.5 10 -3
v 0.5 11 -3
v 1.5 4 -3
v 1.5 5 -3
v 1.5 7 -3
v 1.5 10 -3
v 2.5 4 -3
v 2.5 5 -3
v 2.5 7 -3
v -0.5 7 -4
v -0.5 8 -4
v 0.5 7 -4
v 0.5 8 -4
v -1.5 0 2
v -0.5 0 2
v 0.5 0 2
v 1.5 0 2
v -1.5 0 1
v -0.5 0 1
v 0.5 0 1
v 1.5 0 1
v -2.5 2 4
v -1.5 2 4
v -0.5 2 4
v 0.5 2 4
v 1.5 2 4
v 2.5 2 4
v -2.5 2 3
v -1.5 2 3
v -0.5 2 3
v 0.5 2 3
v 1.5 2 3
v 2.5 2 3
v -2.5 2 2
v -1.5 2 2
v 1.5 2 2
v 2.5 2 2
v -1.5 2 1
v 1.5 2 1
v -2.5 2 -0
v -1.5 2 -0
v 1.5 2 -0
v 2.5 2 -0
v -2.5 2 -1
v -1.5 2 -1
v -0.5 2 -1
v 0.5 2 -1
v 1.5 2 -1
v 2.5 2 -1
v -2.5 2 -2
v -1.5 2 -2
v -0.5 2 -2
v 0.5 2 -2
v 1.5 2 -2
v 2.5 2 -2
v -1.5 3 4
v -0.5 3 4
v 0.5 3 4
v 1.5 3 4
v -2.5 3 3
v -1.5 3 3
v -0.5 3 3
v 0.5 3 3
v 1.5 3 3
v 2.5 3 3
v -2.5 3 2
v -1.5 3 2
v -0.5 3 2
v 0.5 3 2
v 1.5 3 2
v 2.5 3 2
v -1.5 3 1
v -0.5 3 1
v 0.5 3 1
v 1.5 3 1
v -2.5 3 -0
v -1.5 3 -0
v 1.5 3 -0
v 2.5 3 -0
v -2.5 3 -1
v -1.5 3 -1
v -0.5 3 -1
v 0.5 3 -1
v 1.5 3 -1
v 2.5 3 -1
v -1.5 3 -2
v -0.5 3 -2
v 0.5 3 -2
v 1.5 3 -2
v -3.5 4 3
v -2.5 4 3
v 2.5 4 3
v 3.5 4 3
v -3.5 4 -1
v -2.5 4 -1
v 2.5 4 -1
v 3.5 4 -1
v -3.5 4 -2
v -2.5 4 -2
v -1.5 4 -2
v -0.5 4 -2
v 0.5 4 -2
v 1.5 4 -2
v 2.5 4 -2
v 3.5 4 -2
v -2.5 4 -3
v -1.5 4 -3
v -0.5 4 -3
v 0.5 4 -3
v 1.5 4 -3
v 2.5 4 -3
v -1.5 5 -2
v -0.5 5 -2
v 0.5 5 -2
v 1.5 5 -2
v -1.5 5 -3
v -0.5 5 -3
v 0.5 5 -3
v 1.5 5 -3
v -0.5 7 -3
v 0.5 7 -3
v -0.5 7 -4
v 0.5 7 -4
v -2.5 5 4
v 2.5 5 4
v -3.5 5 3
v -2.5 5 3
v 2.5 5 3
v 3.5 5 3
v -3.5 5 2
v -2.5 5 2
v 2.5 5 2
v 3.5 5 2
v -3.5 5 -1
v -2.5 5 -1
v 2.5 5 -1
v 3.5 5 -1
v -3.5 5 -2
v -2.5 5 -2
v 2.5 5 -2
v 3.5 5 -2
v -3.5 6 2
v -2.5 6 2
v 2.5 6 2
v 3.5 6 2
v -3.5 6 1
v -2.5 6 1
v 2.5 6 1
v 3.5 6 1
v -2.5 7 3
v 2.5 7 3
v -3.5 7 1
v -2.5 7 1
v 2.5 7 1
v 3.5 7 1
v -1.5 7 -0
v 1.5 7 -0
v -3.5 7 -1
v -2.5 7 -1
v 2.5 7 -1
v 3.5 7 -1
v -2.5 7 -3
v -1.5 7 -3
v 1.5 7 -3
v 2.5 7 -3
v -0.5 8 -3
v 0.5 8 -3
v -0.5 8 -4
v 0.5 8 -4
v -1.5 10 -0
v 1.5 10 -0
v -0.5 10 -1
v 0.5 10 -1
v -1.5 10 -3
v -0.5 10 -3
v 0.5 10 -3
v 1.5 10 -3
v -0.5 11 -2
v 0.5 11 -2
v -0.5 11 -3
v 0.5 11 -3
v -0.5 12 -1
v 0.5 12 -1
v -0.5 12 -2
v 0.5 12 -2

# faces
f 4/7/1 2/7/1 1/7/1
f 5/7/1 2/7/1 4/7/1
f 6/6/1 3/6/1 2/6/1
f 6/7/1 2/7/1 5/7/1
f 7/6/1 3/6/1 6/6/1
f 8/7/1 6/7/1 5/7/1
f 9/7/1 6/7/1 8/7/1
f 10/7/1 6/7/1 9/7/1
f 11/7/1 6/7/1 10/7/1
f 18/5/1 13/5/1 12/5/1
f 19/5/1 15/5/1 14/5/1
f 20/5/1 15/5/1 19/5/1
f 21/5/1 17/5/1 16/5/1
f 22/5/1 20/5/1 19/5/1
f 22/5/1 21/5/1 20/5/1
f 22/5/1 18/5/1 12/5/1
f 22/5/1 19/5/1 18/5/1
f 23/5/1 17/5/1 21/5/1
f 23/5/1 21/5/1 22/5/1
f 24/5/1 17/5/1 23/5/1
f 26/5/1 22/5/1 12/5/1
f 27/5/1 22/5/1 26/5/1
f 30/6/1 25/6/1 24/6/1
f 31/6/1 25/6/1 30/6/1
f 32/7/1 28/7/1 27/7/1
f 34/7/1 32/7/1 27/7/1
f 34/7/1 33/7/1 32/7/1
f 35/7/1 33/7/1 34/7/1
f 36/7/1 31/7/1 30/7/1
f 36/7/1 30/7/1 29/7/1
f 37/7/1 31/7/1 36/7/1
f 40/2/1 39/2/1 38/2/1
f 41/2/1 39/2/1 40/2/1
f 44/7/1 43/7/1 42/7/1
f 45/7/1 43/7/1 44/7/1
f 50/5/1 47/5/1 46/5/1
f 51/5/1 47/5/1 50/5/1
f 52/5/1 49/5/1 48/5/1
f 53/5/1 49/5/1 52/5/1
f 56/6/1 55/6/1 54/6/1
f 57/6/1 55/6/1 56/6/1
f 60/1/1 59/1/1 58/1/1
f 61/1/1 59/1/1 60/1/1
f 64/3/1 63/3/1 62/3/1
f 65/3/1 63/3/1 64/3/1
f 66/3/1 64/3/1 62/3/1
f 67/3/1 64/3/1 66/3/1
f 70/2/1 69/2/1 68/2/1
f 71/2/1 69/2/1 70/2/1
f 78/5/1 73/5/1 72/5/1
f 79/5/1 73/5/1 78/5/1
f 80/5/1 75/5/1 74/5/1
f 81/5/1 75/5/1 80/5/1
f 82/5/1 77/5/1 76/5/1
f 83/5/1 77/5/1 82/5/1
f 86/6/1 85/6/1 84/6/1
f 87/6/1 85/6/1 86/6/1
f 88/5/2 89/5/2 94/5/2
f 94/5/2 89/5/2 95/5/2
f 90/5/2 91/5/2 96/5/2
f 96/5/2 91/5/2 97/5/2
f 92/5/2 93/5/2 98/5/2
f 98/5/2 93/5/2 99/5/2
f 100/6/2 101/6/2 102/6/2
f 102/6/2 101/6/2 103/6/2
f 104/2/2 105/2/2 106/2/2
f 106/2/2 105/2/2 107/2/2
f 108/5/2 109/5/2 112/5/2
f 112/5/2 109/5/2 113/5/2
f 110/5/2 111/5/2 114/5/2
f 114/5/2 111/5/2 115/5/2
f 116/6/2 117/6/2 118/6/2
f 118/6/2 117/6/2 119/6/2
f 120/1/2 121/1/2 122/1/2
f 122/1/2 121/1/2 123/1/2
f 124/3/2 125/3/2 126/3/2
f 126/3/2 125/3/2 127/3/2
f 124/3/2 126/3/2 128/3/2
f 128/3/2 126/3/2 129/3/2
f 130/2/2 131/2/2 132/2/2
f 132/2/2 131/2/2 133/2/2
f 134/7/2 135/7/2 136/7/2
f 136/7/2 135/7/2 137/7/2
f 138/5/2 139/5/2 144/5/2
f 140/5/2 141/5/2 145/5/2
f 145/5/2 141/5/2 146/5/2
f 142/5/2 143/5/2 147/5/2
f 145/5/2 146/5/2 148/5/2
f 146/5/2 147/5/2 148/5/2
f 138/5/2 144/5/2 148/5/2
f 144/5/2 145/5/2 148/5/2
f 147/5/2 143/5/2 149/5/2
f 148/5/2 147/5/2 149/5/2
f 149/5/2 143/5/2 150/5/2
f 138/5/2 148/5/2 152/5/2
f 152/5/2 148/5/2 153/5/2
f 150/6/2 151/6/2 156/6/2
f 156/6/2 151/6/2 157/6/2
f 153/7/2 154/7/2 158/7/2
f 153/7/2 158/7/2 160/7/2
f 158/7/2 159/7/2 160/7/2
f 160/7/2 159/7/2 161/7/2
f 156/7/2 157/7/2 162/7/2
f 155/7/2 156/7/2 162/7/2
f 162/7/2 157/7/2 163/7/2
f 164/7/2 165/7/2 167/7/2
f 167/7/2 165/7/2 168/7/2
f 165/6/2 166/6/2 169/6/2
f 168/7/2 165/7/2 169/7/2
f 169/6/2 166/6/2 170/6/2
f 168/7/2 169/7/2 171/7/2
f 171/7/2 169/7/2 172/7/2
f 172/7/2 169/7/2 173/7/2
f 173/7/2 169/7/2 174/7/2
f 177/5/3 176/5/3 175/5/3
f 178/5/3 176/5/3 177/5/3
f 180/5/3 176/5/3 178/5/3
f 181/5/3 180/5/3 179/5/3
f 182/5/3 176/5/3 180/5/3
f 182/5/3 180/5/3 181/5/3
f 184/5/3 176/5/3 182/5/3
f 185/5/3 184/5/3 183/5/3
f 186/5/3 176/5/3 184/5/3
f 186/5/3 184/5/3 185/5/3
f 189/7/3 188/7/3 187/7/3
f 190/7/3 188/7/3 189/7/3
f 193/7/3 191/7/3 190/7/3
f 194/7/3 191/7/3 193/7/3
f 195/7/3 193/7/3 192/7/3
f 196/7/3 193/7/3 195/7/3
f 201/7/3 198/7/3 197/7/3
f 202/7/3 198/7/3 201/7/3
f 204/5/3 200/5/3 199/5/3
f 205/5/3 200/5/3 204/5/3
f 206/2/3 204/2/3 203/2/3
f 206/2/3 205/2/3 204/2/3
f 207/2/3 205/2/3 206/2/3
f 210/2/3 209/2/3 208/2/3
f 211/2/3 209/2/3 210/2/3
f 212/2/3 209/2/3 211/2/3
f 213/5/3 212/5/3 211/5/3
f 214/5/3 212/5/3 213/5/3
f 217/7/3 216/7/3 215/7/3
f 218/7/3 216/7/3 217/7/3
f 221/7/3 220/7/3 219/7/3
f 222/7/3 220/7/3 221/7/3
f 225/7/3 224/7/3 223/7/3
f 226/7/3 224/7/3 225/7/3
f 229/7/3 228/7/3 227/7/3
f 230/7/3 228/7/3 229/7/3
f 233/5/3 232/5/3 231/5/3
f 234/5/3 232/5/3 233/5/3
f 239/5/3 236/5/3 235/5/3
f 240/5/3 236/5/3 239/5/3
f 241/3/3 238/3/3 237/3/3
f 242/3/3 238/3/3 241/3/3
f 245/5/3 244/5/3 243/5/3
f 246/5/3 244/5/3 245/5/3
f 247/5/4 248/5/4 249/5/4
f 249/5/4 248/5/4 250/5/4
f 251/5/4 252/5/4 253/5/4
f 253/5/4 252/5/4 254/5/4
f 255/5/4 256/5/4 257/5/4
f 257/5/4 256/5/4 258/5/4
f 259/2/4 260/2/4 262/2/4
f 260/2/4 261/2/4 262/2/4
f 262/2/4 261/2/4 263/2/4
f 264/2/4 265/2/4 266/2/4
f 266/2/4 265/2/4 267/2/4
f 267/2/4 265/2/4 268/2/4
f 269/5/4 270/5/4 271/5/4
f 271/5/4 270/5/4 272/5/4
f 273/5/4 274/5/4 275/5/4
f 275/5/4 274/5/4 276/5/4
f 277/7/4 278/7/4 279/7/4
f 279/7/4 278/7/4 280/7/4
f 281/7/4 282/7/4 283/7/4
f 283/7/4 282/7/4 284/7/4
f 285/6/4 286/6/4 288/6/4
f 288/6/4 286/6/4 289/6/4
f 287/5/4 288/5/4 290/5/4
f 290/5/4 288/5/4 291/5/4
f 291/5/4 288/5/4 292/5/4
f 292/5/4 293/5/4 295/5/4
f 291/5/4 292/5/4 295/5/4
f 295/5/4 293/5/4 296/5/4
f 296/5/4 293/5/4 297/5/4
f 294/5/4 295/5/4 300/5/4
f 295/5/4 296/5/4 300/5/4
f 300/5/4 296/5/4 301/5/4
f 301/5/4 296/5/4 302/5/4
f 298/3/4 299/3/4 304/3/4
f 304/3/4 299/3/4 305/3/4
f 302/5/4 303/5/4 307/5/4
f 301/5/4 302/5/4 307/5/4
f 307/5/4 303/5/4 308/5/4
f 308/5/4 303/5/4 309/5/4
f 306/5/4 307/5/4 310/5/4
f 307/5/4 308/5/4 310/5/4
f 310/5/4 308/5/4 311/5/4
f 311/6/4 312/6/4 313/6/4
f 313/6/4 312/6/4 314/6/4
f 315/6/4 316/6/4 318/6/4
f 316/7/4 317/7/4 319/7/4
f 318/6/4 316/6/4 319/6/4
f 319/7/4 317/7/4 320/7/4
f 320/7/4 321/7/4 323/7/4
f 319/7/4 320/7/4 323/7/4
f 323/7/4 321/7/4 324/7/4
f 324/7/4 321/7/4 325/7/4
f 325/7/4 321/7/4 326/7/4
f 322/6/4 323/6/4 328/6/4
f 323/7/4 324/7/4 329/7/4
f 328/6/4 323/6/4 329/6/4
f 329/7/4 324/7/4 330/7/4
f 325/7/4 326/7/4 331/7/4
f 326/3/4 327/3/4 332/3/4
f 331/7/4 326/7/4 332/7/4
f 332/3/4 327/3/4 333/3/4
f 330/7/4 331/7/4 335/7/4
f 331/7/4 332/7/4 335/7/4
f 329/7/4 330/7/4 335/7/4
f 335/7/4 332/7/4 336/7/4
f 336/7/4 332/7/4 337/7/4
f 334/6/4 335/6/4 338/6/4
f 335/7/4 336/7/4 339/7/4
f 338/6/4 335/6/4 339/6/4
f 339/7/4 336/7/4 340/7/4
f 341/1/4 342/1/4 343/1/4
f 343/1/4 342/1/4 344/1/4
f 349/2/5 346/2/5 345/2/5
f 350/2/5 346/2/5 349/2/5
f 351/2/5 348/2/5 347/2/5
f 352/2/5 348/2/5 351/2/5
f 359/5/5 354/5/5 353/5/5
f 360/5/5 354/5/5 359/5/5
f 361/5/5 356/5/5 355/5/5
f 362/5/5 356/5/5 361/5/5
f 363/5/5 358/5/5 357/5/5
f 364/5/5 358/5/5 363/5/5
f 369/5/5 366/5/5 365/5/5
f 370/5/5 368/5/5 367/5/5
f 371/5/5 369/5/5 365/5/5
f 372/5/5 369/5/5 371/5/5
f 373/5/5 368/5/5 370/5/5
f 374/5/5 368/5/5 373/5/5
f 381/5/5 376/5/5 375/5/5
f 382/5/5 376/5/5 381/5/5
f 383/5/5 378/5/5 377/5/5
f 384/5/5 378/5/5 383/5/5
f 385/5/5 380/5/5 379/5/5
f 386/5/5 380/5/5 385/5/5
f 392/5/5 388/5/5 387/5/5
f 393/5/5 388/5/5 392/5/5
f 394/5/5 390/5/5 389/5/5
f 395/5/5 390/5/5 394/5/5
f 397/5/5 393/5/5 392/5/5
f 397/5/5 396/5/5 395/5/5
f 397/5/5 395/5/5 394/5/5
f 397/5/5 394/5/5 393/5/5
f 397/5/5 392/5/5 391/5/5
f 398/5/5 396/5/5 397/5/5
f 399/5/5 396/5/5 398/5/5
f 400/5/5 396/5/5 399/5/5
f 401/5/5 396/5/5 400/5/5
f 402/5/5 396/5/5 401/5/5
f 404/4/5 400/4/5 399/4/5
f 405/4/5 400/4/5 404/4/5
f 408/4/5 404/4/5 403/4/5
f 408/4/5 406/4/5 405/4/5
f 408/4/5 405/4/5 404/4/5
f 409/4/5 406/4/5 408/4/5
f 411/5/5 408/5/5 407/5/5
f 412/4/5 409/4/5 408/4/5
f 412/5/5 408/5/5 411/5/5
f 413/4/5 409/4/5 412/4/5
f 414/4/5 409/4/5 413/4/5
f 415/5/5 410/5/5 409/5/5
f 415/4/5 409/4/5 414/4/5
f 416/5/5 410/5/5 415/5/5
f 417/5/5 413/5/5 412/5/5
f 418/5/5 413/5/5 417/5/5
f 419/5/5 415/5/5 414/5/5
f 420/5/5 415/5/5 419/5/5
f 425/7/5 422/7/5 421/7/5
f 426/7/5 422/7/5 425/7/5
f 427/7/5 424/7/5 423/7/5
f 428/7/5 424/7/5 427/7/5
f 429/6/5 426/6/5 425/6/5
f 430/6/5 426/6/5 429/6/5
f 435/6/5 428/6/5 427/6/5
f 436/6/5 428/6/5 435/6/5
f 437/6/5 431/6/5 430/6/5
f 438/6/5 431/6/5 437/6/5
f 439/6/5 433/6/5 432/6/5
f 440/6/5 433/6/5 439/6/5
f 441/6/5 435/6/5 434/6/5
f 442/6/5 435/6/5 441/6/5
f 447/7/5 444/7/5 443/7/5
f 448/7/5 444/7/5 447/7/5
f 449/7/5 446/7/5 445/7/5
f 450/7/5 446/7/5 449/7/5
f 453/1/5 452/1/5 451/1/5
f 454/1/5 452/1/5 453/1/5
f 455/5/6 456/5/6 458/5/6
f 458/5/6 456/5/6 459/5/6
f 457/7/6 458/7/6 461/7/6
f 461/7/6 458/7/6 462/7/6
f 459/7/6 460/7/6 463/7/6
f 463/7/6 460/7/6 464/7/6
f 465/6/6 466/6/6 469/6/6
f 469/6/6 466/6/6 470/6/6
f 467/6/6 468/6/6 471/6/6
f 471/6/6 468/6/6 472/6/6
f 473/7/6 474/7/6 477/7/6
f 477/7/6 474/7/6 478/7/6
f 475/7/6 476/7/6 479/7/6
f 479/7/6 476/7/6 480/7/6
f 481/7/6 482/7/6 484/7/6
f 484/7/6 482/7/6 485/7/6
f 483/7/6 484/7/6 487/7/6
f 485/7/6 486/7/6 487/7/6
f 484/7/6 485/7/6 487/7/6
f 487/7/6 486/7/6 488/7/6
f 483/7/6 487/7/6 489/7/6
f 489/7/6 487/7/6 490/7/6
f 488/7/6 486/7/6 491/7/6
f 491/7/6 486/7/6 492/7/6
f 490/7/6 487/7/6 493/7/6
f 493/7/6 487/7/6 494/7/6
f 488/7/6 491/7/6 495/7/6
f 495/7/6 491/7/6 496/7/6
f 497/1/6 498/1/6 499/1/6
f 499/1/6 498/1/6 500/1/6
f 501/7/6 502/7/6 503/7/6
f 503/7/6 502/7/6 504/7/6
f 501/7/6 503/7/6 505/7/6
f 505/7/6 503/7/6 506/7/6
f 504/7/6 502/7/6 507/7/6
f 507/7/6 502/7/6 508/7/6
f 509/3/6 510/3/6 511/3/6
f 511/3/6 510/3/6 512/3/6
f 513/3/6 514/3/6 515/3/6
f 515/3/6 514/3/6 516/3/6
